<?xml version="1.0" standalone="no"?><!DOCTYPE svg PUBLIC "-//W3C//DTD SVG 1.1//EN" "http://www.w3.org/Graphics/SVG/1.1/DTD/svg11.dtd"><svg t="1639113701139" class="icon" viewBox="0 0 1024 1024" version="1.1" xmlns="http://www.w3.org/2000/svg" p-id="36885" xmlns:xlink="http://www.w3.org/1999/xlink" width="200" height="200"><defs><style type="text/css"></style></defs><path d="M608 985.6c-10.666667 0-19.2-2.133333-29.866667-4.266667l-6.4-2.133333-226.133333-134.4c-19.2-4.266667-51.2-10.666667-66.133333-10.666667h-4.266667l-164.266667-19.2c-49.066667 0-89.6-42.666667-89.6-91.733333v-298.666667c0-49.066667 40.533333-89.6 89.6-91.733333l185.6-25.6c21.333333 0 42.666667-4.266667 64-10.666667l211.2-151.466666 4.266667-2.133334c27.733333-10.666667 59.733333-6.4 83.2 10.666667s38.4 44.8 38.4 74.666667v663.466666c0 29.866667-14.933333 57.6-38.4 74.666667-12.8 12.8-32 19.2-51.2 19.2z m-6.4-66.133333c8.533333 2.133333 14.933333 0 21.333333-4.266667 6.4-4.266667 10.666667-12.8 10.666667-21.333333V230.4c0-8.533333-4.266667-17.066667-10.666667-23.466667-6.4-4.266667-14.933333-6.4-21.333333-4.266666l-209.066667 151.466666-4.266666 2.133334c-27.733333 10.666667-57.6 14.933333-87.466667 14.933333l-185.6 25.6c-14.933333 0-27.733333 12.8-27.733333 27.733333v296.533334c0 14.933333 12.8 27.733333 27.733333 27.733333h4.266667l164.266666 19.2c29.866667 0 78.933333 12.8 83.2 14.933333l4.266667 2.133334 230.4 134.4z" fill="#543E3E" p-id="36886"></path><path d="M857.6 864c-10.666667 0-21.333333-6.4-27.733333-14.933333-8.533333-14.933333-4.266667-34.133333 10.666666-44.8 66.133333-40.533333 110.933333-140.8 110.933334-249.6 0-117.333333-51.2-221.866667-123.733334-256-17.066667-6.4-23.466667-25.6-14.933333-42.666667s25.6-23.466667 42.666667-14.933333c96 44.8 160 170.666667 160 313.6 0 132.266667-55.466667 251.733333-140.8 302.933333-4.266667 4.266667-10.666667 6.4-17.066667 6.4z" fill="#FFBB12" p-id="36887"></path></svg>